PathFileType	4	(X/Y/Z)	E:/Microgravity/Neeraj_13_07_24_t02 _without_weight_pp.trc													
DataRate	CameraRate	NumFrames	NumMarkers	Units	OrigDataRate	OrigDataStartFrame	OrigNumFrames									
120	120	80	5	m	120	3530	7058									
Frame#	Time	RHAND			r_radius_styloid			RWRB			r_humerus_epicondyle			r_acromion		
		X1	Y1	Z1	X2	Y2	Z2	X3	Y3	Z3	X4	Y4	Z4	X5	Y5	Z5
																
3530	29.408	0.2023	-0.0082	0.20023	0.14596	-0.08	0.26521	0.19464	-0.11729	0.18683	-0.00686	-0.23543	0.28344	-0.01589	0.08205	0.19582
3531	29.417	0.20229	-0.00815	0.20022	0.14598	-0.07995	0.2652	0.19464	-0.11725	0.18682	-0.00682	-0.23539	0.28346	-0.01587	0.08208	0.19581
3532	29.425	0.20229	-0.00811	0.20021	0.14599	-0.07991	0.26518	0.19464	-0.11722	0.18681	-0.00679	-0.23536	0.28348	-0.01584	0.0821	0.1958
3533	29.433	0.20228	-0.00807	0.2002	0.146	-0.07986	0.26517	0.19465	-0.11719	0.1868	-0.00675	-0.23532	0.2835	-0.01581	0.08213	0.19579
3534	29.442	0.20228	-0.00804	0.20019	0.14601	-0.07982	0.26516	0.19466	-0.11716	0.18678	-0.00671	-0.23529	0.28352	-0.01577	0.08215	0.19578
3535	29.45	0.20228	-0.008	0.20017	0.14602	-0.07979	0.26514	0.19467	-0.11713	0.18677	-0.00667	-0.23526	0.28353	-0.01574	0.08218	0.19577
3536	29.458	0.20228	-0.00797	0.20016	0.14604	-0.07975	0.26513	0.19469	-0.11711	0.18675	-0.00663	-0.23523	0.28354	-0.0157	0.08221	0.19576
3537	29.467	0.20228	-0.00795	0.20014	0.14606	-0.07973	0.26511	0.1947	-0.1171	0.18673	-0.00659	-0.2352	0.28355	-0.01567	0.08223	0.19575
3538	29.475	0.20229	-0.00793	0.20013	0.14608	-0.0797	0.2651	0.19472	-0.11709	0.18671	-0.00655	-0.23518	0.28356	-0.01564	0.08224	0.19575
3539	29.483	0.2023	-0.00791	0.20011	0.1461	-0.07968	0.26509	0.19474	-0.11709	0.1867	-0.00652	-0.23516	0.28356	-0.0156	0.08226	0.19575
3540	29.492	0.20232	-0.00791	0.2001	0.14612	-0.07967	0.26508	0.19475	-0.11707	0.18669	-0.00648	-0.23515	0.28357	-0.01556	0.08227	0.19575
3541	29.5	0.20233	-0.0079	0.20008	0.14615	-0.07966	0.26508	0.19477	-0.11705	0.18668	-0.00646	-0.23514	0.28357	-0.01553	0.08229	0.19575
3542	29.508	0.20235	-0.0079	0.20006	0.14617	-0.07966	0.26507	0.1948	-0.11704	0.18668	-0.00643	-0.23513	0.28358	-0.0155	0.08229	0.19574
3543	29.517	0.20238	-0.00791	0.20004	0.1462	-0.07966	0.26506	0.19482	-0.11703	0.18667	-0.00641	-0.23513	0.28358	-0.01547	0.08229	0.19573
3544	29.525	0.20241	-0.00792	0.20002	0.14623	-0.07967	0.26505	0.19484	-0.11704	0.18667	-0.00638	-0.23513	0.28359	-0.01545	0.08229	0.19573
3545	29.533	0.20244	-0.00794	0.20001	0.14626	-0.07968	0.26505	0.19487	-0.11705	0.18666	-0.00636	-0.23513	0.28359	-0.01541	0.08228	0.19574
3546	29.542	0.20247	-0.00796	0.19999	0.14629	-0.0797	0.26504	0.19489	-0.11707	0.18666	-0.00634	-0.23513	0.28359	-0.01538	0.08228	0.19575
3547	29.55	0.2025	-0.00797	0.19997	0.14632	-0.07972	0.26504	0.19491	-0.11709	0.18665	-0.00632	-0.23514	0.2836	-0.01534	0.08228	0.19577
3548	29.558	0.20254	-0.00799	0.19995	0.14635	-0.07974	0.26504	0.19493	-0.11711	0.18665	-0.00631	-0.23514	0.2836	-0.0153	0.08229	0.19579
3549	29.567	0.20257	-0.00801	0.19993	0.14638	-0.07977	0.26504	0.19495	-0.11713	0.18665	-0.00629	-0.23515	0.2836	-0.01526	0.08229	0.19581
3550	29.575	0.2026	-0.00804	0.19992	0.14641	-0.07979	0.26504	0.19497	-0.11716	0.18664	-0.00629	-0.23516	0.2836	-0.01522	0.08229	0.19582
3551	29.583	0.20263	-0.00807	0.19991	0.14643	-0.07982	0.26504	0.19498	-0.11719	0.18664	-0.00628	-0.23518	0.2836	-0.0152	0.08229	0.19583
3552	29.592	0.20265	-0.00809	0.19991	0.14645	-0.07985	0.26505	0.19499	-0.11721	0.18665	-0.00628	-0.23519	0.2836	-0.01517	0.08228	0.19583
3553	29.6	0.20267	-0.00812	0.1999	0.14646	-0.07987	0.26506	0.19501	-0.11723	0.18665	-0.00629	-0.23521	0.2836	-0.01515	0.08226	0.19583
3554	29.608	0.20269	-0.00814	0.19989	0.14647	-0.0799	0.26507	0.19502	-0.11725	0.18666	-0.00629	-0.23523	0.2836	-0.01513	0.08224	0.19583
3555	29.617	0.2027	-0.00816	0.19989	0.14648	-0.07992	0.26507	0.19503	-0.11727	0.18666	-0.0063	-0.23525	0.28361	-0.01511	0.08222	0.19582
3556	29.625	0.20271	-0.00817	0.19988	0.14648	-0.07994	0.26508	0.19504	-0.11729	0.18667	-0.0063	-0.23527	0.28361	-0.0151	0.0822	0.19582
3557	29.633	0.20271	-0.00819	0.19987	0.14648	-0.07996	0.26509	0.19504	-0.1173	0.18669	-0.00631	-0.23529	0.28361	-0.01508	0.08219	0.19583
3558	29.642	0.20271	-0.00821	0.19988	0.14649	-0.07998	0.26511	0.19505	-0.11732	0.1867	-0.00631	-0.23531	0.28361	-0.01506	0.08218	0.19585
3559	29.65	0.20271	-0.00822	0.19989	0.14649	-0.07999	0.26512	0.19505	-0.11733	0.18671	-0.00631	-0.23532	0.2836	-0.01503	0.08218	0.19587
3560	29.658	0.20271	-0.00823	0.1999	0.14649	-0.08001	0.26513	0.19505	-0.11734	0.18673	-0.00631	-0.23534	0.2836	-0.01501	0.08217	0.19588
3561	29.667	0.20271	-0.00824	0.19991	0.14649	-0.08002	0.26515	0.19505	-0.11736	0.18675	-0.00632	-0.23536	0.28359	-0.015	0.08215	0.19589
3562	29.675	0.2027	-0.00826	0.19992	0.14648	-0.08004	0.26516	0.19506	-0.11737	0.18677	-0.00632	-0.23538	0.28358	-0.01499	0.08213	0.19589
3563	29.683	0.2027	-0.00827	0.19994	0.14648	-0.08005	0.26518	0.19507	-0.11738	0.18679	-0.00632	-0.23541	0.28357	-0.01498	0.08211	0.19589
3564	29.692	0.20269	-0.00829	0.19997	0.14648	-0.08007	0.2652	0.19507	-0.1174	0.18681	-0.00632	-0.23543	0.28357	-0.01497	0.08209	0.1959
3565	29.7	0.20269	-0.0083	0.19999	0.14647	-0.08009	0.26522	0.19508	-0.11741	0.18684	-0.00632	-0.23546	0.28356	-0.01495	0.08208	0.19591
3566	29.708	0.20268	-0.00831	0.20001	0.14647	-0.08011	0.26524	0.19508	-0.11743	0.18686	-0.00633	-0.23548	0.28355	-0.01493	0.08206	0.19592
3567	29.717	0.20268	-0.00832	0.20003	0.14647	-0.08013	0.26526	0.19509	-0.11745	0.18689	-0.00633	-0.23551	0.28354	-0.01492	0.08203	0.19592
3568	29.725	0.20267	-0.00833	0.20005	0.14647	-0.08016	0.26529	0.19509	-0.11746	0.18691	-0.00633	-0.23554	0.28353	-0.0149	0.082	0.19593
3569	29.733	0.20267	-0.00834	0.20007	0.14647	-0.08018	0.26531	0.1951	-0.11748	0.18694	-0.00634	-0.23556	0.28352	-0.01489	0.08196	0.19593
3570	29.742	0.20268	-0.00836	0.20009	0.14646	-0.0802	0.26533	0.19511	-0.11749	0.18697	-0.00634	-0.23559	0.28351	-0.01487	0.08193	0.19594
3571	29.75	0.20268	-0.00837	0.20011	0.14647	-0.08023	0.26535	0.19512	-0.11751	0.18699	-0.00634	-0.23562	0.28351	-0.01483	0.08192	0.19596
3572	29.758	0.20269	-0.00838	0.20013	0.14647	-0.08025	0.26537	0.19513	-0.11753	0.18701	-0.00634	-0.23564	0.2835	-0.0148	0.08191	0.19599
3573	29.767	0.2027	-0.0084	0.20015	0.14647	-0.08028	0.26539	0.19514	-0.11754	0.18703	-0.00633	-0.23567	0.2835	-0.01476	0.08189	0.19601
3574	29.775	0.20271	-0.00841	0.20017	0.14648	-0.0803	0.2654	0.19515	-0.11756	0.18705	-0.00633	-0.23569	0.2835	-0.01473	0.08187	0.19602
3575	29.783	0.20272	-0.00842	0.20019	0.14649	-0.08033	0.26542	0.19516	-0.11757	0.18707	-0.00633	-0.23571	0.2835	-0.01471	0.08185	0.19603
3576	29.792	0.20274	-0.00844	0.2002	0.1465	-0.08035	0.26544	0.19517	-0.11759	0.18709	-0.00632	-0.23574	0.2835	-0.01469	0.08182	0.19604
3577	29.8	0.20275	-0.00845	0.20022	0.14652	-0.08037	0.26546	0.19519	-0.11761	0.18711	-0.0063	-0.23576	0.2835	-0.01467	0.0818	0.19604
3578	29.808	0.20277	-0.00847	0.20023	0.14654	-0.0804	0.26547	0.19521	-0.11763	0.18712	-0.00629	-0.23578	0.2835	-0.01465	0.08177	0.19605
3579	29.817	0.2028	-0.00849	0.20025	0.14657	-0.08042	0.26549	0.19523	-0.11765	0.18714	-0.00627	-0.23581	0.2835	-0.01462	0.08176	0.19606
3580	29.825	0.20282	-0.00851	0.20026	0.14659	-0.08044	0.26551	0.19525	-0.11767	0.18715	-0.00625	-0.23583	0.2835	-0.01459	0.08174	0.19607
3581	29.833	0.20285	-0.00852	0.20026	0.14662	-0.08046	0.26553	0.19528	-0.11769	0.18717	-0.00624	-0.23585	0.28351	-0.01456	0.08173	0.19608
3582	29.842	0.20288	-0.00854	0.20026	0.14665	-0.08048	0.26554	0.19531	-0.1177	0.18718	-0.00621	-0.23587	0.28351	-0.01453	0.08171	0.19608
3583	29.85	0.20291	-0.00855	0.20025	0.14668	-0.0805	0.26556	0.19534	-0.11772	0.1872	-0.00619	-0.23588	0.28352	-0.0145	0.08169	0.19609
3584	29.858	0.20294	-0.00857	0.20025	0.14671	-0.08052	0.26558	0.19537	-0.11774	0.18721	-0.00617	-0.2359	0.28353	-0.01446	0.08169	0.19611
3585	29.867	0.20298	-0.00858	0.20025	0.14674	-0.08053	0.26559	0.1954	-0.11776	0.18723	-0.00614	-0.23591	0.28353	-0.01442	0.08168	0.19612
3586	29.875	0.20301	-0.00859	0.20025	0.14678	-0.08055	0.26561	0.19544	-0.11778	0.18724	-0.00611	-0.23592	0.28354	-0.01438	0.08168	0.19614
3587	29.883	0.20305	-0.00859	0.20025	0.14682	-0.08056	0.26562	0.19547	-0.11779	0.18726	-0.00608	-0.23593	0.28355	-0.01434	0.08168	0.19615
3588	29.892	0.20308	-0.0086	0.20026	0.14685	-0.08057	0.26564	0.1955	-0.11781	0.18727	-0.00605	-0.23594	0.28356	-0.0143	0.08167	0.19616
3589	29.9	0.20312	-0.00861	0.20026	0.14689	-0.08058	0.26565	0.19554	-0.11782	0.18728	-0.00602	-0.23595	0.28356	-0.01427	0.08166	0.19616
3590	29.908	0.20315	-0.00861	0.20026	0.14692	-0.08059	0.26566	0.19557	-0.11783	0.18729	-0.00598	-0.23596	0.28357	-0.01424	0.08164	0.19615
3591	29.917	0.20319	-0.00861	0.20026	0.14696	-0.0806	0.26567	0.19561	-0.11784	0.1873	-0.00594	-0.23597	0.28358	-0.01422	0.08162	0.19615
3592	29.925	0.20322	-0.00862	0.20026	0.14699	-0.08061	0.26567	0.19565	-0.11785	0.1873	-0.0059	-0.23598	0.28358	-0.0142	0.08159	0.19614
3593	29.933	0.20325	-0.00862	0.20025	0.14702	-0.08061	0.26568	0.19568	-0.11785	0.18731	-0.00586	-0.23599	0.28358	-0.01418	0.08157	0.19613
3594	29.942	0.20327	-0.00862	0.20024	0.14705	-0.08062	0.26569	0.19572	-0.11785	0.18732	-0.00582	-0.236	0.28358	-0.01415	0.08156	0.19613
3595	29.95	0.2033	-0.00862	0.20024	0.14707	-0.08063	0.26569	0.19575	-0.11786	0.18732	-0.00579	-0.23602	0.28358	-0.01412	0.08154	0.19614
3596	29.958	0.20331	-0.00861	0.20023	0.1471	-0.08064	0.2657	0.19579	-0.11786	0.18733	-0.00575	-0.23604	0.28358	-0.01408	0.08152	0.19615
3597	29.967	0.20333	-0.00861	0.20023	0.14712	-0.08064	0.2657	0.19582	-0.11786	0.18733	-0.00571	-0.23606	0.28357	-0.01405	0.0815	0.19615
3598	29.975	0.20335	-0.00861	0.20023	0.14715	-0.08065	0.2657	0.19585	-0.11786	0.18733	-0.00568	-0.23608	0.28356	-0.01403	0.08148	0.19616
3599	29.983	0.20337	-0.00861	0.20024	0.14717	-0.08066	0.26571	0.19589	-0.11786	0.18734	-0.00564	-0.2361	0.28356	-0.014	0.08147	0.19617
3600	29.992	0.20339	-0.00861	0.20024	0.1472	-0.08067	0.26571	0.19592	-0.11786	0.18735	-0.0056	-0.23612	0.28355	-0.01397	0.08145	0.19618
3601	30	0.20342	-0.00861	0.20024	0.14723	-0.08068	0.26572	0.19596	-0.11786	0.18736	-0.00556	-0.23614	0.28355	-0.01395	0.08143	0.19618
3602	30.008	0.20345	-0.00861	0.20024	0.14726	-0.0807	0.26573	0.196	-0.11787	0.18737	-0.00552	-0.23616	0.28355	-0.01392	0.08142	0.19619
3603	30.017	0.20349	-0.00861	0.20023	0.14729	-0.08071	0.26574	0.19603	-0.11788	0.18739	-0.00548	-0.23618	0.28355	-0.0139	0.08141	0.19621
3604	30.025	0.20353	-0.00862	0.20022	0.14732	-0.08073	0.26575	0.19607	-0.1179	0.1874	-0.00545	-0.2362	0.28355	-0.01386	0.0814	0.19623
3605	30.033	0.20357	-0.00862	0.2002	0.14735	-0.08075	0.26577	0.19611	-0.11791	0.18742	-0.00541	-0.23622	0.28356	-0.01382	0.0814	0.19625
3606	30.042	0.20362	-0.00862	0.20019	0.14739	-0.08077	0.26579	0.19615	-0.11794	0.18744	-0.00538	-0.23624	0.28357	-0.01379	0.08139	0.19627
3607	30.05	0.20367	-0.00863	0.20019	0.14742	-0.08079	0.26581	0.19619	-0.11796	0.18746	-0.00535	-0.23626	0.28358	-0.01376	0.08137	0.19628
3608	30.058	0.20372	-0.00865	0.20018	0.14745	-0.08082	0.26584	0.19623	-0.11798	0.18749	-0.00532	-0.23628	0.2836	-0.01372	0.08136	0.1963
3609	30.067	0.20377	-0.00867	0.20018	0.14749	-0.08085	0.26587	0.19626	-0.11801	0.18751	-0.00529	-0.2363	0.28362	-0.01368	0.08135	0.19633
